<?xml version="1.0" encoding="UTF-8"?>
<svg xmlns="http://www.w3.org/2000/svg" xmlns:xlink="http://www.w3.org/1999/xlink" width="248px" height="179px" viewBox="0 0 248 179" version="1.1">
  <!-- Generator: Sketch 64 (93537) - https://sketch.com -->
  <title>插图</title>
  <desc>Created with Sketch.</desc>
  <g id="API工具" stroke="none" stroke-width="1" fill="none" fill-rule="evenodd">
    <g id="API工具-API注册1" transform="translate(-1316.000000, -429.000000)" fill-rule="nonzero">
      <g id="插图" transform="translate(1316.000000, 429.000000)">
        <g id="编组" transform="translate(0.000000, 34.572825)">
          <path d="M209.464008,49.146664 C206.479809,49.5809373 178.148216,40.3014441 175.145217,27.6125454 C172.142018,14.9062519 149.476624,1.68070974 139.825227,4.94715692 C130.173829,8.2136041 117.519433,4.72042306 117.519433,4.72042306 L109.549035,0.868546646 L107.735836,0 L107.716836,0 L6.97466305,58.1500377 C-2.30933441,63.5088745 -2.32873441,76.8985688 6.93966306,82.2843977 L107.381036,140.649573 C116.024233,145.671908 126.69483,145.687303 135.352428,140.689961 L239.5136,80.5650992 C242.818799,78.6584554 245.576398,75.8262815 247.011797,72.2951116 C254.982195,52.8093955 212.202607,48.7685743 209.464008,49.146664 Z" id="路径" fill="#F3F6FD"></path>
          <path d="M0.104264926,68.5618006 L52.4366506,98.9679311 L70.9566456,88.2786492 L13.0582614,54.6388619 L14.1712611,53.9962493 L72.0690453,87.6370364 L90.7598402,76.8481835 L32.860656,43.2081962 L33.6524558,42.7511295 L91.5512399,76.3909168 L110.402235,65.5110905 L52.5034506,31.8705034 L53.2848504,31.419435 L111.184035,65.0600221 L129.864629,54.2771674 L71.9652453,20.6363804 L73.077445,19.9945676 L130.977029,53.6353546 L149.507224,42.9400744 L91.6074399,9.29868758 L92.7210396,8.65607503 L228.476203,86.9364407 L227.362603,87.5790533 L150.383424,43.4491259 L131.853229,54.1444061 L208.833208,98.2743335 L207.721208,98.9161463 L130.740629,54.7862189 L72.945045,88.1450882 L149.927224,132.276615 L148.815224,132.918428 L71.8326453,88.7869009 L53.3126504,99.4769827 L129.56743,143.191431 C129.07103,143.342987 128.57283,143.483346 128.07063,143.60671 L0.0274649469,69.7756465 C0.0404649433,69.369565 0.0568649389,68.9644831 0.104264926,68.5618006 Z" id="路径" fill="#FDFEFF"></path>
        </g>
        <g id="编组" transform="translate(56.776049, -0.000000)">
          <path d="M137.360362,121.206754 L137.360362,115.892704 L87.675776,115.892704 L87.723376,126.583586 C87.965176,128.21491 89.0933757,129.946605 90.4429753,130.732375 L110.04377,142.049674 L137.360362,126.180503 L137.360362,124.670144 L136.514163,124.166691 L135.849363,123.784202 L135.869563,122.072102 L137.360362,121.206754 Z" id="路径" fill="#E1E9F4"></path>
          <g transform="translate(18.061995, 0.000000)" id="路径">
            <g>
              <g>
                <path d="M101.120972,54.2636813 L96.1647737,57.1296453 C94.9823741,57.809647 93.8971743,57.8744281 93.1197746,57.4205605 L41.5515886,27.4600999 C42.3289884,27.9139675 43.3979881,27.8489865 44.5803878,27.1691848 L49.5527865,24.3032208 L101.120972,54.2636813 Z" fill="#DEE7F8"></path>
                <polygon fill="#9EB5DF" points="51.5775859 116.483332 0.00139999962 86.5192724 0 86.0108207 51.5761859 115.97488"></polygon>
                <path d="M92.8121746,57.9717997 L41.2275887,27.994744 C40.385389,27.5092856 39.8507891,26.4569925 39.8507891,24.9666273 L39.8183891,3.5934618 C39.8183891,2.24945384 39.3325893,1.31012784 38.5711895,0.857060002 L90.1393754,30.8175206 C90.9169752,31.2705884 91.386575,32.2099144 91.386575,33.5539224 L91.435175,54.943683 C91.435375,56.4166533 91.9535749,57.4697461 92.8121746,57.9717997 Z" fill="#DEE7F8"></path>
                <path d="M90.4635753,30.2830765 C89.6051755,29.7810229 88.4065758,29.8615994 87.0945762,30.6071819 C84.4869769,32.1125428 82.3813775,35.7724752 82.3975775,38.7514063 L82.5433775,93.0921551 C82.5433775,95.8119617 80.632178,99.1151982 78.2837786,100.475801 L51.5723859,115.978279 L0.00379999896,86.0182186 L26.6989927,70.5157406 C29.0637921,69.1551375 30.9749915,65.8519011 30.9587915,63.1320944 L30.8129916,8.79134558 C30.8129916,5.81221459 32.918591,2.15248213 35.5261903,0.647121241 C36.8381899,-0.114256666 38.0205896,-0.179037769 38.8789894,0.323015782 L90.4635753,30.2830765 Z" fill="#DEE7F8"></path>
                <polygon fill="#1E72C6" points="35.7199902 12.0769872 35.7141902 14.2157633 38.8443894 16.0224363 38.8143894 25.6524272 40.8869888 26.8484783 40.9159888 17.2190872 44.062788 19.0349575 44.067588 16.8955816"></polygon>
                <path d="M87.0973762,30.6121805 C89.7009755,29.1094188 91.8251749,30.3196658 91.8335749,33.3057947 L91.8717749,54.682959 C91.8793749,57.3901693 93.8035744,58.4908483 96.1639737,57.1284457 L101.128172,54.2632815 L101.129572,54.7717331 L96.1653737,57.6368974 C93.5617744,59.139659 91.437575,57.9294121 91.429175,54.9384845 L91.390975,33.5613202 C91.383375,30.8545098 89.4591756,29.7582296 87.0987762,31.1206321 C84.7423768,32.4806354 82.8267774,35.7930692 82.8343774,38.5000796 L82.9843773,92.8414282 C82.9927773,95.8323558 80.8825779,99.4866898 78.2787786,100.989451 L51.5775859,116.483332 L51.5761859,115.97488 L78.2773786,100.481 C80.637778,99.1185972 82.5493774,95.8083628 82.5417775,93.0969537 L82.3917775,38.755605 C82.3833775,35.7692761 84.4937769,32.1149421 87.0973762,30.6121805 Z" fill="#83A1CC"></path>
              </g>
              <g transform="translate(35.039790, 21.006382)">
                <polygon fill="#1E72C6" points="39.8207891 65.5082913 41.7845886 68.9164971 41.3945887 69.1310345 39.8181891 66.4014308 38.1059896 67.3843441 36.3983901 64.4276065 34.6793905 65.4067209 32.971791 62.4497835 31.2529915 63.4288979 29.5453919 60.4721603 27.8263924 61.4512747 26.1187929 58.4943373 24.4065933 59.4772505 22.6987938 56.520513 20.9799943 57.4996274 20.6057944 56.8212253 22.7013938 55.6349713 24.4089933 58.5919088 26.1211929 57.6089955 27.8289924 60.565733 29.5477919 59.5866186 31.2553915 62.5435561 32.974191 61.5644417 34.6819905 64.5211792 36.4007901 63.5420648 38.1085896 66.4916045"></polygon>
                <g>
                  <polygon fill="#9EB5DF" points="10.3879972 52.3643254 10.3849972 53.4620052 0 47.4679536 0.00299999918 46.3702738"></polygon>
                  <polygon fill="#9EB5DF" points="23.2545936 42.0641299 23.2515936 43.154012 0.0501999863 29.7625183 0.0531999855 28.6726362"></polygon>
                  <polygon fill="#9EB5DF" points="42.2149885 70.7341669 42.2117885 71.8318467 18.5821949 58.1932251 18.5853949 57.0955453"></polygon>
                  <polygon fill="#9EB5DF" points="42.2317885 64.8298892 42.2285885 65.927569 0.0167999954 41.5636759 0.0197999946 40.4659961"></polygon>
                  <polygon fill="#9EB5DF" points="42.2483885 58.9334092 42.2453885 60.0306891 0.0333999909 35.666796 0.03659999 34.5695161"></polygon>
                  <polygon fill="#1E72C6" points="39.8541891 53.7149314 41.8179886 57.1231372 41.4279887 57.3376747 39.8517891 54.6080709 38.1393896 55.5835863 36.43179 52.6342466 34.7127905 53.6059632 33.005191 50.6564236 31.2863915 51.6281401 29.5787919 48.6788004 27.9987924 49.5713401 27.6111925 48.9153314 29.5811919 47.7932588 31.2889915 50.7501962 33.007791 49.7710818 34.7153905 52.7278193 36.43439 51.748705 38.1419896 54.6978447"></polygon>
                  <polygon fill="#9EB5DF" points="42.2651885 53.0365293 42.2621885 54.1264114 26.1113929 44.8045306 26.1143929 43.7146485"></polygon>
                  <polygon fill="#1E72C6" points="26.3073928 22.2553081 28.2711923 25.6557163 27.8877924 25.8820502 26.3047928 23.1412497 24.5925933 24.1239631 22.8849937 21.1672255 21.1659942 22.1463399 19.4583947 19.1896024 17.7395952 20.1687168 16.0319956 17.2117793 14.3195961 18.1946926 12.6119966 15.2379551 10.893197 16.2168696 9.18539749 13.260132 7.46659796 14.2392464 5.75899843 11.2825089 4.04679889 12.2654222 2.33899936 9.30848472 0.752399794 10.2200188 0.371399899 9.55261351 2.34159936 8.42274309 4.04919889 11.3794806 5.76159843 10.3965673 7.46919796 13.3535048 9.18799749 12.3743904 10.895597 15.3311279 12.6145966 14.3520135 14.3221961 17.308951 16.0343956 16.3260377 17.7421952 19.2827752 19.4609947 18.3036608 21.1685942 21.2603984 22.8873937 20.2814839 24.5951933 23.2382214"></polygon>
                  <polygon fill="#9EB5DF" points="42.2819884 47.1322516 42.2787885 48.2299314 0.0669999817 23.8660383 0.0699999809 22.7683585"></polygon>
                  <polygon fill="#9EB5DF" points="28.2833923 21.3259792 28.2803923 22.4158613 0.117199968 6.16060296 0.120199967 5.07072088"></polygon>
                  <polygon fill="#9EB5DF" points="42.2985884 41.2357716 42.2955884 42.3256536 0.0835999772 17.9617606 0.0867999763 16.8718785"></polygon>
                  <polygon fill="#9EB5DF" points="42.3153884 35.3314938 42.3121884 36.4287738 32.3291912 30.6668545 32.3323912 29.5695746"></polygon>
                  <polygon fill="#9EB5DF" points="42.3487884 23.5303362 42.3457884 24.628016 10.6765971 6.34914796 10.6797971 5.25146815"></polygon>
                  <polygon fill="#9EB5DF" points="42.3487884 18.2788681 42.3457884 20.0007658 10.6765971 1.72189772 10.6797971 0"></polygon>
                </g>
                <polygon fill="#9EB5DF" points="28.2667923 27.2228591 28.2635923 28.320139 0.100399973 12.0648807 0.103399972 10.9676008"></polygon>
              </g>
            </g>
            <g transform="translate(69.591966, 94.210693)">
              <g transform="translate(0.000000, 4.341586)">
                <g>
                  <path d="M49.7070014,16.6356302 L22.3894088,32.5082001 L21.5342091,32.0143442 L2.79681418,21.2048973 C1.96821441,20.7240376 1.30001459,19.5615767 1.30001459,18.6130533 C1.31341459,18.1321936 1.47381454,17.798291 1.74101447,17.6515338 L29.058607,1.77836401 C28.7914071,1.93891717 28.6176071,2.27281977 28.6176071,2.7406833 C28.6176071,3.68920662 29.2858069,4.85186747 30.1144067,5.33252726 L48.8518016,16.1413743 L49.7070014,16.6356302 Z" fill="#B6CBEA"></path>
                  <polygon fill="#DEE7F8" points="22.9550087 27.9985156 48.2072018 13.327795 48.1974018 16.7781886 22.9452087 31.4489091"></polygon>
                  <polygon fill="#EAEFFA" points="2.81201418 17.7507049 30.1284067 1.88073415 48.8668016 12.6961793 21.5504091 28.56615"></polygon>
                  <path d="M1.74401447,17.6471351 L29.060407,1.77716436 C29.3338069,1.61841066 29.7120068,1.64020431 30.1284067,1.88073415 L2.81201418,17.7507049 C2.39541429,17.5101751 2.01721439,17.4883814 1.74401447,17.6471351 Z" fill="#EAEFFA"></path>
                  <path d="M49.7204014,11.6786761 L22.4028088,27.5512461 L2.81001418,16.2481432 C2.03481439,15.7940756 1.32641458,15.7536874 0.818614722,16.0609978 L28.1362073,0.188427789 C28.6440071,-0.105086593 29.3524069,-0.0652981991 30.1276067,0.375573199 L49.7204014,11.6786761 Z" fill="#B6CBEA"></path>
                  <path d="M22.9550087,27.9985156 L22.9452087,31.4489091 L4.2068138,20.633464 C3.37901402,20.1558033 2.70721421,18.9923427 2.70980668,18.0414201 C2.7126142,17.0904975 3.38881402,16.7054098 4.21661379,17.1830705 L22.9550087,27.9985156 Z" fill="#FFFFFF"></path>
                  <path d="M22.3994088,27.5540453 L22.3952088,29.0538078 L21.5504091,28.56615 L2.81201418,17.7507049 C1.9842144,17.2730442 1.30801459,17.6581319 1.30541459,18.6090545 C1.30281459,19.5599771 1.97461441,20.7232378 2.80241418,21.2010984 L21.5408091,32.0165436 L22.3856088,32.5042013 L22.3814088,34.0139609 L2.79821418,22.710858 C1.24521461,21.8145195 -0.00498505325,19.6397539 0,17.8554743 C0.00501494402,16.0813918 1.2634146,15.3546038 2.81641418,16.2509424 L22.3994088,27.5540453 Z" fill="#9EB5DF"></path>
                </g>
                <polygon fill="#83A1CC" points="22.3994088 27.5540453 49.7158014 11.6840745 49.7116014 13.183837 22.3952088 29.0536078"></polygon>
                <polygon fill="#83A1CC" points="22.3854088 32.5040014 49.7018014 16.6340306 49.6974014 18.1437902 22.3810088 34.013761"></polygon>
              </g>
              <g transform="translate(3.869600, 0.000000)">
                <g>
                  <path d="M42.9578017,14.3767419 L19.3496081,28.0939406 L18.6104083,27.6670651 L2.41721273,18.32539 C1.70121293,17.9099112 1.12361308,16.9052043 1.12361308,16.0854434 C1.13521308,15.6699646 1.27381304,15.3812488 1.50481298,15.2544858 L25.1130065,1.53668729 C24.8820066,1.67544681 24.7320066,1.96396265 24.7320066,2.36824472 C24.7320066,3.1880056 25.3094065,4.19271253 26.0256063,4.60819133 L42.2188019,13.9492665 L42.9578017,14.3767419 Z" fill="#6B9EF9"></path>
                  <polygon fill="#DEE7F8" points="19.838208 24.1966774 41.661602 11.5181757 41.653202 14.4999059 19.829808 27.1786076"></polygon>
                  <polygon fill="#EAEFFA" points="2.43041273 15.3404607 26.0376063 1.62546139 42.2316019 10.9723349 18.6244083 24.6873343"></polygon>
                  <path d="M1.50741298,15.2508869 L25.1146065,1.53588752 C25.3508065,1.39872753 25.6776064,1.41752205 26.0376063,1.62526145 L2.43041273,15.3404607 C2.07041283,15.1327213 1.74361292,15.1137269 1.50741298,15.2508869 Z" fill="#EAEFFA"></path>
                  <path d="M42.9692017,10.0929914 L19.3610081,23.8101901 L2.42861273,14.0418395 C1.75861291,13.649354 1.14641308,13.6145642 0.707613199,13.8800867 L24.3158067,0.162888021 C24.7546066,-0.0908379674 25.3668065,-0.0564479989 26.0368063,0.324640838 L42.9692017,10.0929914 Z" fill="#6B9EF9"></path>
                  <polygon fill="#1E72C6" points="25.5742064 4.17371807 20.9996077 6.83134284 31.0274049 12.6148558 35.6020037 9.95723102"></polygon>
                  <path d="M19.838208,24.1966774 L19.829808,27.1784076 L3.6358124,17.8315341 C2.92041259,17.4186545 2.33981275,16.4131478 2.34220534,15.5915875 C2.34461275,14.7698272 2.92901259,14.4369243 3.6444124,14.8498039 L19.838208,24.1966774 Z" fill="#FFFFFF"></path>
                  <path d="M19.3582081,23.8125894 L19.3546081,25.1086114 L18.6246083,24.6871343 L2.43061273,15.3402608 C1.71521292,14.9273812 1.13081308,15.2602841 1.12841308,16.0820444 C1.12601308,16.9038047 1.70681293,17.9091115 2.42201273,18.321991 L18.6160083,27.6688646 L19.3460081,28.0903416 L19.3422081,29.395161 L2.41821273,19.6270104 C1.0760131,18.8524363 -0.00438660697,16.9729845 0,15.4310343 C0.00441339062,13.8978815 1.09201309,13.2696648 2.43401273,14.0444388 L19.3582081,23.8125894 Z" fill="#3887E5"></path>
                </g>
                <polygon fill="#1E72C6" points="19.3582081 23.8125894 42.9652017 10.0975901 42.9616017 11.393612 19.3544081 25.1086114"></polygon>
                <polygon fill="#1E72C6" points="19.3460081 28.0905416 42.9532017 14.3755422 42.9494017 15.6801616 19.3422081 29.395161"></polygon>
              </g>
            </g>
          </g>
          <path d="M42.8449883,93.1633343 C43.0463882,93.2842991 42.5441884,94.4757515 42.1815885,94.3537871 C41.7987886,94.2338221 39.5657892,95.872744 38.4779895,95.6506088 L37.7039897,96.1422654 C37.0593899,96.9880187 36.55579,97.6526248 36.2735901,98.5583606 C35.7497902,100.331243 34.7627905,101.418926 34.1179907,101.982362 C34.1381907,101.982362 34.1381907,102.001956 34.1583907,102.001956 C34.1583907,102.001956 33.5741908,102.646968 33.010191,103.190809 C32.4863911,103.694262 30.5323917,105.144639 31.4387914,105.950004 C31.5193914,106.009987 31.5597914,106.110358 31.5597914,106.231322 C31.5597914,106.271711 31.5597914,106.332693 31.5395914,106.392675 C32.1439912,106.453658 32.848991,106.51364 33.2921909,106.594217 L33.2921909,106.655199 C36.1707901,106.858539 36.9747899,106.921321 37.2405898,107.319005 C37.7975897,108.404089 38.2657895,109.534559 38.5499895,109.655524 C39.1543893,109.876859 39.4967892,110.400906 39.5773892,110.683024 C39.5773892,110.916956 39.5205892,110.873568 39.1945893,110.743006 C39.2349893,110.783395 39.3153893,111.186477 39.2953893,111.206071 C39.2349893,111.24646 39.1141893,111.206071 39.0335893,111.145089 C39.1543893,111.266054 39.1543893,111.306442 39.1543893,111.306442 C39.1543893,111.367424 39.1141893,111.407812 39.0939893,111.427407 C38.9529894,111.528777 38.6709894,111.165883 38.6709894,111.145089 C38.7917894,111.367424 38.7515894,111.467595 38.6709894,111.507983 C38.6305894,111.548371 38.5703895,111.548371 38.5703895,111.548371 C38.5501895,111.528777 38.2279896,111.367424 38.0667896,110.923954 C38.0263896,110.823583 38.0063896,110.802989 38.0063896,110.762601 C37.8855897,111.186477 37.7041897,111.125495 37.7041897,111.125495 C37.6235897,111.044918 37.5631897,110.823583 37.4623898,110.702618 C37.2407898,110.441094 37.2407898,110.138183 37.4421898,109.836271 L37.4623898,109.836271 C37.5227897,109.7359 37.3011898,109.595341 37.3011898,109.595341 L36.1125901,108.386894 C35.7301902,107.861447 34.8183905,108.080783 32.5871911,107.983811 C32.5469911,108.004405 32.5267911,108.024199 32.5267911,108.024199 C31.0165915,108.09138 28.5339922,108.064588 28.2963923,108.064588 C28.2359923,108.266129 28.0143923,108.46767 27.4705925,108.568041 C27.8517924,108.94873 27.2705926,109.765691 26.2013928,110.883765 C26.2013928,111.532576 22.9655937,111.892271 21.850194,110.883765 C20.7357943,109.922046 22.3725939,109.411795 21.7091941,108.3665 C21.5067941,108.114973 22.5823938,107.777471 22.1925939,107.339799 C22.071794,107.178446 23.2601936,105.889422 24.4487933,105.24521 C24.4689933,105.224616 24.4891933,105.224616 24.5293933,105.204822 C24.7509932,105.043469 24.9725932,104.882316 25.1941931,104.741757 C25.2143931,104.741757 25.2545931,104.741757 25.2747931,104.761351 C26.2331928,103.884607 26.2603928,103.888006 26.9871926,103.714057 C27.6317925,102.60678 27.6921924,101.277367 27.8735924,100.935067 C28.2207923,99.6116534 29.293792,98.8808666 30.1499918,98.2368544 C32.2247912,96.6655128 32.1443912,95.1353591 33.8565908,93.4036642 C33.8565908,93.4036642 36.51239,91.563601 36.61299,92.5705073 C36.61299,92.5705073 33.7557908,96.5051595 33.5945908,97.0480012 C33.5543908,97.1493716 32.849191,98.3174309 32.6477911,98.961643 C32.849191,98.8406783 33.050791,98.7001193 33.2117909,98.5585606 C33.2721909,98.4985781 33.3125909,98.4581898 33.3527909,98.4180016 C33.5341908,98.2164604 33.7557908,97.9951249 34.0175907,97.693213 C34.4607906,97.1897598 34.8433905,96.6657127 35.1859904,96.1424653 C35.9715902,94.9536121 37.4017898,92.9397996 37.4017898,92.9397996 C37.4823898,92.6584816 37.8649897,91.6919635 38.9327894,92.1748227 C39.8795891,92.5972995 42.1801885,92.6796754 42.8449883,93.1633343 Z" id="路径" fill="#E1E9F4"></path>
          <g transform="translate(33.216869, 55.995846)" id="路径">
            <g transform="translate(0.258823, 18.793048)">
              <g>
                <path d="M5.37329714,15.7574036 C4.85669728,15.820985 4.38709741,16.0249255 2.87089782,15.971941 C0.543298457,15.8905647 0.342898511,16.7789056 0.342898511,16.7789056 C0.342898511,16.7789056 -0.480501264,19.0716368 1.23229827,18.5719826 C2.52709791,18.1944927 4.96349725,16.9194646 6.03529696,16.3350351 C6.34149687,16.1676839 5.83809701,15.7002203 5.37329714,15.7574036 Z" fill="#2A2A5E"></path>
                <path d="M8.63229625,17.7848122 C8.11569639,17.8483936 7.64609652,18.0523342 6.12989693,17.9993496 C3.80229757,17.9179733 3.60189762,18.8063142 3.60189762,18.8063142 C3.60189762,18.8063142 2.77889785,21.3799635 4.49169738,20.8803092 C5.78649702,20.5028193 8.22289636,19.2277913 9.29469607,18.6433617 C9.60089598,18.4758106 9.09709612,17.7274289 8.63229625,17.7848122 Z" fill="#2A2A5E"></path>
                <path d="M1.1210983,0 C1.1210983,0 0.955698344,0.385887437 0.759098398,0.706393946 C0.283098528,1.48256754 -0.536901248,2.55665423 0.502698468,6.92957865 C1.34329824,10.4659471 0.00749860303,13.0833836 0.343698511,16.76371 C0.343698511,16.76371 1.95769807,17.706635 2.87109782,15.9721409 C2.87109782,15.9721409 2.77589785,11.3264961 3.02349778,10.3437827 C3.07789776,10.1274458 3.36109769,7.54419936 3.6930976,6.41112988 C3.76649758,6.77222455 3.82469756,7.12952033 3.87129755,7.54679861 L3.87129755,1.19585117 C2.43489794,0.730187005 1.1210983,0 1.1210983,0 Z" fill="#3A3A77"></path>
              </g>
              <path d="M7.31649661,0.874744838 C6.6240968,2.15957006 4.23169745,1.40918894 2.62969789,0.722189338 C1.78809812,2.84656966 2.61709789,4.75121408 3.20969773,5.72532993 C3.60049762,6.36814242 3.83249756,7.09173135 3.90129754,7.84071287 C3.93989753,8.26119022 3.96869752,8.74984768 3.98969752,9.3630688 C4.02569751,10.4111631 3.99949751,11.4616566 3.92469753,12.5077515 C3.75469758,14.8854579 3.55289763,18.9710662 3.55289763,18.9710662 C5.65149706,19.7756315 6.39609686,18.0061476 6.39609686,18.0061476 L6.46989684,13.4872658 C6.50149683,11.7571704 6.52509682,10.4127626 6.9872967,8.74424931 C8.4442963,3.48738273 7.31649661,0.874744838 7.31649661,0.874744838 Z" fill="#4C4A8B"></path>
            </g>
            <g>
              <g transform="translate(0.364229, 6.502749)">
                <g transform="translate(0.000000, 0.627636)">
                  <path d="M5.71129159,8.83308896 C5.7048916,8.8236917 5.6990916,8.81369462 5.6926916,8.80469724 C5.18109174,8.05751519 4.50169192,7.46068929 3.81069211,6.87605982 C2.85589237,6.0694951 3.42069222,4.82485816 3.46509221,4.70749239 C3.46509221,4.70749239 2.78769239,4.32720332 2.85249238,4.20124007 L0.753692949,5.25053399 C0.840892925,5.73299326 0.952092894,6.25883987 1.04049287,6.923446 C1.10249285,7.38851034 1.95889262,8.12969414 2.90689236,8.83308896 L5.71129159,8.83308896 Z" fill="#ECB4BF"></path>
                  <path d="M1.25889281,0.100436267 C0.467093027,0.50971688 -0.111106815,1.49283011 0.0180931495,2.80984593 C0.0600931381,3.24171996 0.384893049,4.44956763 0.67389297,5.32791142 C1.21509282,5.36769981 3.1228923,5.48366598 3.53789219,4.81386137 C3.60409217,3.76216814 3.5012922,2.39696637 3.45369221,1.90750915 C3.32509225,0.589093726 2.04949259,-0.310643821 1.25889281,0.100436267 Z" fill="#8CA8F7"></path>
                </g>
                <g transform="translate(0.180220, 0.000000)">
                  <path d="M7.4948712,3.30312092 C6.30487153,2.80666573 7.40187123,1.76436977 6.47387148,1.4430635 C5.54587174,1.12175722 4.1970721,0.702279581 4.1970721,0.702279581 C4.1970721,0.702279581 3.1306724,1.09476509 1.84567275,0.167035711 C1.84567275,0.167035711 0.0250732442,-0.582745578 0.0250732442,1.09476509 C0.0250732442,2.77187588 -0.260526678,3.16436139 1.09607295,5.55526397 C2.45247258,7.94656643 0.232873187,12.730371 0.0900732264,13.6754953 C0.0900732264,13.6754953 4.02967215,15.4343822 7.35107124,14.1951437 C7.35107124,14.1951437 7.29907126,12.8601331 7.16747129,11.6818768 C7.04687133,10.6003923 6.22687155,7.33554466 7.81107112,6.28545098 C8.48547093,5.83838139 8.73267087,3.81937033 7.4948712,3.30312092 Z" fill="#6B9EF9"></path>
                  <path d="M7.81927111,3.51385945 C8.16367102,4.31722511 7.53227119,5.03881462 7.04907133,5.35892124 C6.08627159,5.99713508 6.15787157,7.33074606 6.38947151,8.52179863 C6.59647145,9.58748777 6.86487138,10.6395809 7.16767129,11.6818768 C7.04687133,10.6001924 6.22707155,7.33514478 7.81127112,6.28505109 C8.41647095,5.88376815 8.66787088,4.22425223 7.81927111,3.51385945 Z" fill="#3887E5"></path>
                </g>
              </g>
              <g>
                <g transform="translate(5.723906, 5.794840)">
                  <path d="M2.19541431,3.89426405 C2.90501412,2.81677835 6.47721314,4.14379126 8.03521272,4.79160229 C8.4856126,4.98054718 9.00161245,4.88717442 9.35261236,4.54667374 L11.5428118,2.91674919 C11.5506118,2.8971549 11.8760117,2.74060057 11.8930117,2.55345516 C11.8940117,2.54665714 11.8946117,2.54005907 11.8950117,2.53326105 C11.9262117,1.95203059 12.1674116,1.40259087 12.6158115,1.0304994 C12.7940114,0.883142388 13.0490113,0.496455184 13.1924113,0.398883646 C13.1924113,0.398883646 13.4392112,0.358495427 13.2220113,1.13946762 C13.2452113,1.09448074 13.2850113,1.03309865 13.3928113,0.891939822 C13.9384111,0.172149784 14.401211,0.0121964423 14.428811,0 C14.428811,0 14.477811,0.0195942844 14.500411,0.108368389 C14.5284109,0.210538586 14.487811,0.399683413 14.188211,0.726588055 C14.215611,0.714391613 14.8062109,0.171749901 14.8466109,0.415878689 C14.8608109,0.467063758 14.8572109,0.533644336 14.8104109,0.652009809 C14.8104109,0.652009809 14.7832109,0.721389571 14.5554109,0.89413918 C14.6810109,0.806764668 14.8416109,0.7939684 14.8642373,0.882742505 C14.8680109,0.929728799 14.461011,1.59773394 14.411611,1.63552292 C14.5278109,1.60193272 14.7974109,1.52515511 14.8180109,1.64771936 C14.8220109,1.6949056 14.8006109,1.77748151 14.7266109,1.90804343 C14.433011,2.3627108 13.6592112,3.14108375 12.8752114,3.27764391 C12.6650115,3.32003155 12.2530116,3.78489595 12.2530116,3.78489595 L9.62901228,6.85679988 C9.35181236,7.12392196 8.96861246,7.25768294 8.58201257,7.19710061 C7.06941298,6.95497124 3.58841393,6.17659829 2.91501412,5.88888222 C2.91521412,5.88868228 1.27041457,5.28605806 2.19541431,3.89426405 Z" fill="#ECB4BF"></path>
                  <path d="M5.43901343,3.78689537 C4.52601368,3.35222216 1.74901444,2.28373384 1.29441456,2.15077262 C0.0692148943,1.79347684 -0.0507850729,3.05350929 0.0138149095,3.90146195 C0.0760148925,4.74981448 0.732014713,5.61396241 1.95601438,5.97025848 C2.35721427,6.0874243 4.13361378,6.52329716 5.02741354,6.58128025 C5.76201334,5.35543782 5.43261343,3.79189391 5.43901343,3.78689537 Z" fill="#6B9EF9"></path>
                </g>
                <g>
                  <path d="M7.07752009,2.30765681 C7.0487201,1.81819959 6.78692017,1.81200139 6.78692017,1.81200139 L5.23752059,2.60896892 C5.23752059,2.60896892 3.26852113,6.22831316 5.70852046,6.81994058 C7.43231999,7.23801863 7.16152007,3.73783963 7.07752009,2.30765681 Z" fill="#ECB4BF"></path>
                  <path d="M6.40532027,6.62899628 C6.16812034,6.4338532 6.27692031,6.09335253 6.15412034,5.80903546 C5.83572043,5.0718505 5.63552048,4.40244576 6.24532032,4.52520995 C6.53672024,4.58379286 6.50412025,4.02935459 6.63212021,3.76323222 C7.0433201,2.89368587 7.7905199,0.873875044 5.5617205,0.377019977 C5.5693205,0.376620093 4.13972089,-0.529515588 2.6457213,0.46919309 C1.89532151,0.972846175 1.44852163,1.78840828 1.36192165,2.66195346 C1.35012165,2.77911929 1.34252166,2.89948418 1.34172166,3.00845239 C1.33612166,3.5750871 0.775521812,4.48762092 0.464321897,4.79473133 C0.289321945,4.96508164 0.277121948,5.32837567 0.400521914,5.67167553 C0.542721875,6.06736011 0.434321905,6.51822859 0.120121991,6.7931484 C-0.260677905,7.13404896 0.251121955,12.502283 1.83852152,12.4349027 C1.84872152,12.4345028 3.14372116,13.7049322 4.31772084,12.6256471 C4.31072085,12.6212483 5.82852043,10.8689595 6.38992028,9.01969892 C6.53572024,8.50184997 7.52971997,7.56772246 6.40532027,6.62899628 Z" fill="#A0533F"></path>
                </g>
              </g>
            </g>
          </g>
          <path d="M68.2031814,111.790301 C67.8205815,112.132601 65.2419822,113.018543 64.7383823,112.877984 L63.1669827,114.830814 C62.5425829,115.595791 62.159783,116.200614 61.8375831,116.986385 C61.4345832,118.03368 59.9035836,119.74558 59.3799838,120.309016 C59.3999838,120.32861 59.3999838,120.32861 59.4201838,120.368998 C59.3597838,120.409387 59.2791838,120.470369 59.2187838,120.510557 L59.1985838,120.510557 C58.705784,121.08399 57.7555842,122.21386 57.3251843,122.826282 C57.7883842,122.86667 58.3323841,122.926652 58.7755839,123.007229 C58.735384,123.027823 58.715184,123.047617 58.674784,123.068211 C59.4805838,123.228564 59.9841836,123.510682 60.9713833,123.812594 C61.1929833,123.89317 61.3743832,123.954153 61.5153832,124.094912 C61.5153832,124.094912 61.5153832,124.094912 61.5353832,124.094912 C62.220383,124.094912 63.0059828,124.296453 63.3887827,124.538382 C63.6103826,124.699735 63.6707826,124.840294 63.5699826,124.980853 L61.5353832,127.336966 C61.7569831,127.720454 61.8577831,128.223907 60.8907834,128.324278 C60.8907834,128.324278 60.7497834,128.343872 60.7497834,128.243701 L59.1783838,130.096361 C59.0777839,130.196732 58.8359839,130.277308 58.473384,130.297902 L58.2517841,130.297902 L58.2517841,130.318496 C59.6215837,130.398073 60.6287834,130.720579 61.1927833,131.203438 L61.9583831,131.706891 C62.8043828,132.290921 62.9051828,133.157268 62.0389831,134.204563 C60.3065835,136.218375 55.4315849,138.071035 51.160786,138.332559 C49.0253866,138.453523 47.453987,138.151611 46.6079873,137.567582 L45.6811875,136.943164 C44.8351878,136.318746 44.7343878,135.472993 45.6005875,134.446492 C47.2927871,132.472868 51.9863858,130.660596 56.1765847,130.357685 L56.5593845,129.915214 C56.4989846,129.915214 56.4385846,129.874826 56.3981846,129.834637 C55.8281847,129.470344 56.4349846,129.340382 57.2241844,128.263296 C57.2039844,128.143331 57.2241844,128.04196 57.2241844,127.94179 C57.2643844,127.780437 57.8887842,127.438336 57.0831844,126.692954 C55.4015849,125.088822 56.5915845,125.407529 54.1621852,124.598365 C53.5605854,124.642352 53.3751854,124.780312 53.1751855,124.780312 C53.1751855,124.799906 53.1751855,124.799906 53.1549855,124.8197 C53.1145855,124.880682 53.0541855,124.900277 52.9735855,124.900277 C53.1347855,124.980853 53.2757854,124.900277 53.4771854,125.021241 C54.3031852,125.424324 53.2555855,126.471618 52.8125856,126.854107 C53.2355855,127.136424 53.2355855,127.256389 52.9535855,127.417542 C52.9333855,127.417542 52.9333855,127.417542 52.9333855,127.417542 C52.4463857,127.9066 52.1731857,127.76964 51.9463858,127.920996 C51.8657858,127.961384 51.8255858,128.04196 51.7247859,128.062554 C51.5435859,128.122537 51.5637859,128.022166 51.4427859,127.981978 C51.362186,127.961384 51.241186,128.04196 51.140586,127.981978 C50.8927861,127.93959 51.192386,127.550904 50.5361862,127.679066 C50.1983863,127.909799 49.9121864,127.724853 50.1131863,127.659472 C49.5961865,127.613485 49.0957866,127.693262 49.2469865,127.538507 C49.2469865,127.443135 48.5559867,127.367757 48.4613868,127.35756 C48.2801868,127.35756 48.3807868,127.338166 48.3807868,127.196207 C48.3807868,127.075842 48.0581869,127.076242 47.8569869,127.034854 C47.665787,127.034854 47.699787,126.817717 48.1993868,126.692554 C48.1519868,126.633571 47.8841869,126.317063 47.9173869,126.249083 C48.0843869,126.140315 48.1993868,126.253282 48.1993868,126.048542 C48.1793868,125.98756 48.1389868,125.967965 48.1591868,125.906983 C48.1591868,125.847001 48.3201868,125.766424 48.4813868,125.726036 C48.6021867,125.726036 48.7231867,125.766424 48.8439867,125.806612 C49.0979866,125.174797 49.0253866,125.466312 49.3273865,125.363142 C49.6687864,125.277767 49.3301865,125.016443 50.0527863,125.122212 L50.1333863,125.122212 C50.1535863,125.101618 50.1535863,125.081824 50.1535863,125.081824 C50.1939863,125.020842 50.2543863,125.001247 50.3147863,124.980453 C50.3147863,124.980453 50.3147863,124.960859 50.3347862,124.960859 C50.3597862,124.760917 50.3549862,124.779512 50.3549862,124.738524 C50.3147863,124.738524 50.2743863,124.71893 50.2341863,124.71893 C50.1535863,124.678541 50.1333863,124.618559 50.1737863,124.597965 L50.1737863,124.578371 C50.1535863,124.597965 50.1133863,124.578371 50.0729863,124.537982 C48.1991868,124.279258 49.0669866,122.906658 50.0931863,122.906658 C50.1933863,122.706317 53.1663855,121.105984 53.5983854,119.724586 L53.5983854,119.703992 C53.6123854,119.703992 53.6257854,119.703992 53.6387853,119.703992 L53.6387853,119.684398 C53.6387853,119.64401 53.6589853,119.603822 53.6589853,119.543839 C52.5695856,118.453757 55.5809848,116.672277 56.1367847,115.858314 C56.8015845,114.91139 59.8837836,109.715306 61.0119833,108.688806 C60.6895834,109.615135 62.139983,107.520546 62.200383,107.540201 L63.1271828,107.802864 C63.2077827,107.883441 63.2883827,107.983811 63.3689827,108.024199 C62.9257828,108.527653 62.5631829,109.031106 62.5631829,109.031106 L58.9975839,116.300985 C58.9975839,116.300985 62.9861828,115.032555 64.5775824,109.554153 C64.6379823,109.353612 64.6983823,109.151871 64.7387823,108.971123 C64.9603823,109.092088 65.2019822,109.172664 65.4639821,109.252441 L65.1417822,111.488589 C65.2625822,111.548571 65.3029822,111.629148 65.2425822,111.669536 L65.1821822,111.769907 C66.7131818,111.951854 69.2111811,109.111882 69.2313811,109.313423 C69.2709811,109.514765 69.3513811,110.783395 68.2031814,111.790301 Z" id="路径" fill="#E1E9F4"></path>
          <g transform="translate(59.000657, 49.583090)">
            <g transform="translate(0.000000, 22.220466)" id="路径">
              <g>
                <g>
                  <path d="M5.38972563,7.35306422 C4.25912594,7.01316337 2.73012636,6.77743213 2.17832651,6.70445342 C0.691926916,6.50871052 -0.0108728925,7.76034542 0.000127104505,8.74345864 C0.0101271018,9.6393973 0.558926952,10.473554 2.04392655,10.6682972 C2.53072641,10.7326784 3.96012602,10.6870917 5.01672573,10.5965181 C3.97372602,8.8214359 5.38292563,7.36006218 5.38972563,7.35306422 Z" fill="#3A3A77"></path>
                  <path d="M6.9831252,2.81158896 C6.9831252,2.81158896 3.73332608,3.19887599 3.65252611,3.39941749 C3.63072611,3.4737958 2.24272649,7.13492785 2.02672655,7.99827601 C1.66412665,9.40206653 5.4981256,9.93411133 5.28972566,8.83903076 C5.1585257,8.12164003 4.92292576,7.57000094 5.37072564,7.34706597 C5.66332556,7.20130849 5.73852554,7.43623996 6.06832545,7.31947402 C7.62832502,6.75063995 6.9831252,2.81158896 6.9831252,2.81158896 Z" fill="#ECB4BF"></path>
                  <path d="M5.97072547,3.62535159 C5.97072547,3.62535159 6.6023253,4.6616493 5.82092551,5.21788705 C5.82092551,5.21788705 5.64972556,4.72463093 5.40332563,4.72463093 C5.39252563,4.76281979 5.38192563,4.78821238 5.37132564,4.82580142 L5.21072568,4.82580142 C5.23212568,4.93936829 5.24292567,5.09112402 5.16792569,5.15470548 C5.1251257,5.19229451 5.09292571,5.19229451 5.03952573,5.20529072 C5.01812573,5.47061333 5.09312571,5.78672112 4.58992585,6.49411477 C4.60072585,6.51950737 4.60072585,6.54470002 4.60072585,6.57009261 C4.57932585,6.55769623 4.55792586,6.55769623 4.54712586,6.54470002 C4.52572587,6.58288888 4.48292588,6.62067786 4.45072589,6.6712631 L4.3971259,6.6712631 C4.30072593,6.6712631 4.21512595,6.6712631 4.12952598,6.65886672 C4.049326,6.65386817 3.98232602,6.63727301 3.90852604,6.62667611 C3.90392604,6.62667611 3.90212604,6.62607628 3.89752604,6.62547646 C3.36712618,6.54709932 2.99172629,6.33416143 2.74872635,6.10262897 C2.74872635,6.07663655 2.74872635,6.03904752 2.73792636,6.00145848 C2.65232638,5.93787703 2.60952639,5.81131395 2.62012639,5.68535069 C2.63092639,5.64716183 2.64152638,5.59637664 2.63092639,5.55878761 C2.60952639,5.53339501 2.5881264,5.52119857 2.55592641,5.52119857 C2.38452645,5.48300971 2.15992651,5.50820236 2.09572653,5.30586139 C2.02072655,5.11631668 2.13852652,4.83859769 2.01012656,4.7120346 C1.94592657,4.63605677 1.8495266,4.66144936 1.78532662,4.58547152 C1.72112663,4.49649748 1.73172663,4.35773795 1.76392662,4.23117487 C1.80672661,4.01643751 1.8495266,3.78930376 1.90312658,3.56137025 C1.74252663,3.58676285 1.58192667,3.59895929 1.44272671,3.52378122 C1.29292675,3.43480717 1.18572678,3.20767343 1.26072676,3.01752889 C1.29292675,2.92935461 1.35712673,2.86637298 1.41052672,2.79039514 C1.4639267,2.71441731 1.50692669,2.60025061 1.4855267,2.51207633 C1.44272671,2.39850946 1.32492674,2.34792421 1.31412675,2.23435734 C1.31412675,2.14538329 1.36772673,2.08260161 1.42112672,2.03181642 C1.62452666,1.8292755 1.82792661,1.61453814 2.03132655,1.41279699 C1.87072659,1.3116265 1.75292663,1.0966892 1.74232663,0.868955627 C1.74232663,0.830766767 1.74232663,0.780781347 1.75312663,0.729996161 C1.78512662,0.641022115 1.87092659,0.590436871 1.94572657,0.590436871 C2.07412654,0.565044278 2.2027265,0.615829464 2.33112647,0.628625731 C2.45952643,0.641022115 2.60952639,0.590436871 2.66292638,0.451477405 C2.69512637,0.363303125 2.69512637,0.261932695 2.75932635,0.211347451 C2.79132634,0.185954858 2.84492633,0.198351242 2.88772632,0.198351242 C3.09112626,0.236540102 3.2945262,0.274329079 3.50852615,0.312517939 C3.63692611,0.337910532 3.79752607,0.337910532 3.86172605,0.185954858 C3.87252605,0.148365822 3.88312604,0.0977805781 3.90452604,0.0593917761 C3.95812602,-0.0417787126 4.06512599,0.00880653174 4.15072597,0.0469953921 C4.3969259,0.185954858 4.65392583,0.274129137 4.91072576,0.312317998 C4.86792577,0.223343951 4.93212576,0.0975806364 5.01772573,0.0715882184 C5.09272571,0.0591918344 5.17832569,0.135169672 5.23192568,0.211147509 C5.28552566,0.299321789 5.31752565,0.38769601 5.38172563,0.464273672 C5.54232559,0.679011034 5.84192551,0.666014825 5.99192547,0.438281254 C6.08832544,0.287125346 6.13112543,0.10997702 6.29172539,0.0975806364 C6.43092535,0.0845844274 6.49512533,0.248736544 6.6021253,0.261732753 C6.74132526,0.261732753 6.83772524,0.0216027991 6.9769252,0.223543893 C7.04112518,0.337710591 7.03052518,0.501862708 7.06252518,0.628425789 C7.12672516,0.830166942 7.28732511,0.944533581 7.40492508,1.09628931 C7.59772503,1.36161192 7.64052502,1.76609393 7.66192501,2.13258703 C7.66192501,2.14498341 7.66192501,2.14498341 7.66192501,2.15797962 C7.92972494,2.72721357 7.56572504,3.01792877 5.97072547,3.62535159 Z" fill="#2A2A5E"></path>
                  <path d="M15.4755229,1.44718696 C15.2237229,1.88645882 14.2623232,2.90636132 13.7165234,2.43369919 C13.7165234,2.43369919 13.6003234,2.16997612 14.0689233,1.78408868 C14.5375231,1.39820125 14.3333232,0.801175398 13.6297234,1.34661629 C13.1795235,1.7055116 12.8603236,2.47648671 12.6873236,2.98793752 C12.5739237,3.32204006 12.9039236,4.36413609 11.402924,5.51240114 C10.5515242,6.16401106 9.78272443,6.77063411 9.12352461,7.59119476 C8.49852478,8.39196117 5.33172565,8.5475158 3.55432613,9.13314497 L4.66572583,10.4979469 C5.77572553,10.0264844 3.50972615,12.3434085 4.22092595,12.513159 C5.55892559,12.839064 9.83192442,10.1834386 10.4809242,9.13334491 C11.1625241,8.03986388 12.7779236,5.64356288 13.3713235,4.75462218 C13.5703234,4.45590932 13.8619233,4.23337423 14.2083232,4.09581436 C15.150123,3.72392284 16.9527225,2.77999818 15.8927228,1.29463146 C15.8927228,1.29443152 15.7281228,1.00871486 15.4755229,1.44718696 Z" fill="#ECB4BF"></path>
                  <path d="M6.9897252,9.00438253 C6.55052532,8.67307917 6.09112544,8.28699179 5.72732554,7.85031917 C5.47232561,7.54360864 5.07252572,7.40504905 4.67532583,7.44083862 C3.83472606,7.51701639 2.50992642,7.501221 2.33172647,6.6856589 C2.33172647,6.6856589 -0.435072777,6.50011302 0.618926935,10.2538181 C1.67292665,14.0075231 1.81112661,16.9058777 1.43552671,18.2978716 C1.43552671,18.2978716 5.48312561,23.9230308 8.0683249,19.2339986 C8.0683249,19.2339986 8.0625249,13.4026995 8.30412484,12.3050197 C8.51552478,11.3468992 8.55892477,10.1882372 6.9897252,9.00438253 Z" fill="#4C4A8B"></path>
                  <path d="M4.59912585,7.88131013 C3.72432609,7.88131013 2.38452645,7.72295632 2.17892651,6.77783201 C2.14712652,6.63147471 2.23992649,6.48691687 2.38692645,6.45512615 C2.52732641,6.42213577 2.67592637,6.51670818 2.70892636,6.66266561 C2.86792632,7.39725133 4.65712583,7.37125891 5.27612566,7.30487827 C5.41792562,7.28928282 5.55852559,7.39685145 5.57572558,7.54520817 C5.59172558,7.69436466 5.48432561,7.82812564 5.33452565,7.84452086 C5.24852567,7.85371818 4.96492575,7.88131013 4.59912585,7.88131013 Z" fill="#3A3A77"></path>
                  <g transform="translate(0.197057, 17.307660)">
                    <path d="M1.27346955,1.00920562 C1.25546955,0.996009465 1.23866956,0.990211156 1.23866956,0.990211156 C1.23866956,0.990211156 1.26046955,1.00200772 1.27346955,1.00920562 Z" fill="#73BC9C"></path>
                    <path d="M3.70346888,21.6549833 C3.88546883,20.5457068 6.41946814,20.2020071 6.41946814,20.2020071 C6.41946814,20.2020071 8.44446759,20.0746442 9.34666734,19.7145493 C10.2488671,19.3544543 10.2628671,20.2961796 10.0422672,20.7116584 C9.82166721,21.1271372 8.11946768,23.0107878 6.32786817,22.6782848 L6.33106816,22.8980207 C6.33346816,23.0561745 6.2122682,23.188336 6.05126824,23.2033316 L4.17246875,23.3782806 C4.03506879,23.3910768 3.90306883,23.3168985 3.84966884,23.1915351 C3.73446887,22.921014 3.58246892,22.3931679 3.70346888,21.6549833 Z" fill="#2A2A5E"></path>
                    <path d="M0.250669825,19.2976709 C0.432669776,18.1883945 2.96666908,17.8446947 2.96666908,17.8446947 C2.96666908,17.8446947 4.99166853,17.7173319 5.89386828,17.3572369 C6.79606804,16.9971419 6.81006803,17.9388672 6.58946809,18.3543461 C6.36886815,18.7698249 4.66666862,20.6534754 2.87506911,20.3209724 L2.87826911,20.5407083 C2.88066911,20.6988622 2.75946914,20.8310236 2.59846918,20.8460192 L0.719669697,21.0209682 C0.582269735,21.0337645 0.450269771,20.9595861 0.396869785,20.8342227 C0.281669817,20.5637016 0.129669858,20.0358556 0.250669825,19.2976709 Z" fill="#2A2A5E"></path>
                    <path d="M7.87166774,1.92613815 C6.77066804,3.96994197 1.63306945,1.20554834 1.27346955,1.00900567 C1.32066953,1.04339564 1.39646951,1.15396339 1.17186957,1.33930932 C0.377669791,1.9945182 -0.35293001,4.2598574 0.184469843,6.9612694 C0.391669787,8.0027656 0.523869751,9.05725801 0.460869768,10.1171488 C0.328869804,12.3389008 0.16106985,16.2523592 0.406269783,18.9365762 C0.406269783,18.9365762 2.13406931,19.9462817 3.11206904,18.0890234 C3.11206904,18.0890234 3.01026907,13.1154742 3.275069,12.0635811 C3.33346898,11.8318487 3.30346899,8.75454631 3.65886889,7.54130021 C3.82586885,8.36246068 4.25406873,9.46533897 4.30686872,10.929112 C4.34706871,12.0429871 4.32886871,13.1622606 4.24806873,14.2739363 C4.06446878,16.8009992 3.84226884,21.3004867 3.84226884,21.3004867 C6.08886823,22.1614355 6.87546802,20.7026611 6.87546802,20.7026611 L6.96506799,15.4295992 C6.99906798,13.5773395 7.12966795,12.163352 7.51886784,10.3520803 C8.12086768,7.55209706 7.87166774,1.92613815 7.87166774,1.92613815 Z" fill="#3887E5"></path>
                  </g>
                </g>
                <path d="M7.31792511,20.2139127 C7.698725,20.1025452 7.97572493,19.8826094 8.19272487,19.6044905 C8.12672488,19.3753573 8.0721249,19.0664474 8.0725249,18.8101222 C7.91852494,19.0598494 7.42312508,19.4765278 7.12832516,19.5627027 C5.38272563,20.0695548 1.75532663,18.0859335 1.59892667,18.0011582 L1.50412669,17.9487735 C1.4821267,18.0653395 1.4635267,18.1919025 1.43572671,18.2926731 C1.43572671,18.2926731 1.44972671,18.4350316 1.36892673,18.6471697 C1.8415266,18.9042947 4.53212587,20.3206816 6.49072533,20.3206816 C6.79832525,20.3204816 7.07672517,20.2846921 7.31792511,20.2139127 Z" fill="#4C4A8B"></path>
              </g>
              <path d="M2.69492637,6.00325796 C2.69492637,6.00325796 2.69412637,5.98846227 2.69252637,5.96686857 C2.66732638,5.97066746 2.67552637,5.98526321 2.69492637,6.00325796 Z" fill="#6262AA"></path>
            </g>
            <g transform="translate(12.951724, 19.153170)" id="路径">
              <path d="M3.74580159,15.1073932 C3.74659898,15.3839125 3.56399903,15.6608318 3.19839913,15.8717702 C2.47179932,16.2910479 1.29839965,16.2912479 0.576399843,15.8717702 C0.217799941,15.663431 0.0381999896,15.3909105 0.0375999897,15.1179901 L0,2.53266123 C0.000799999781,2.80558161 0.180199951,3.07810212 0.538799853,3.28644135 C1.26059966,3.70571905 2.43419934,3.70591899 3.16079914,3.28644135 C3.52639904,3.07530294 3.70899899,2.79858366 3.70819899,2.52206432 L3.74580159,15.1073932 Z" fill="#3887E5"></path>
              <path d="M3.16079914,3.28644135 C3.88739894,2.86716365 3.89119894,2.18756189 3.16939913,1.76808425 C2.44759933,1.34880655 1.27399965,1.34880655 0.54759985,1.76808425 C-0.178799951,2.18736195 -0.18279995,2.86696371 0.538999853,3.28624141 C1.26079966,3.70591899 2.43439933,3.70591899 3.16079914,3.28644135 Z" fill="#A6C2FF"></path>
              <path d="M0.778799787,0 L0.785399785,2.32752106 C0.785799785,2.48607481 0.890199757,2.64442862 1.0985997,2.76539334 C1.51799959,3.00912224 2.1999994,3.00912224 2.62219928,2.76539334 C2.83459923,2.64302903 2.9407992,2.48207598 2.94020172,2.32172276 L2.9335992,0 L0.778799787,0 Z" fill="#2A2A5E"></path>
            </g>
            <g transform="translate(6.241125, 0.000000)">
              <path d="M3.21899912,2.9894846 L4.82339868,2.07235212 C3.63759901,2.75675248 2.90479921,4.22452434 2.90739921,6.31251527 C2.90919921,8.38331122 3.63359901,10.6868393 4.80879869,12.7214458 C4.96099864,12.984769 5.1299986,13.2470925 5.29899855,13.5096159 C5.77479842,14.2272066 6.30619828,14.9038092 6.87759812,15.5132314 C7.318398,15.9874931 7.78339787,16.412769 8.27279774,16.7886594 C8.64099764,17.0765754 9.01739754,17.3333005 9.39859743,17.5524366 L9.40239743,17.5590347 C11.1841969,18.5763379 12.8015965,18.6699106 13.9737962,17.993308 L12.3603966,18.9246363 C11.1839969,19.5948408 9.56679739,19.5010682 7.79159787,18.480166 C7.40019798,18.2582307 7.02339808,18.0017055 6.65519818,17.7137895 C6.17259831,17.3339003 5.70739844,16.9088243 5.25999856,16.4383616 C4.68839872,15.8289393 4.16079886,15.1589348 3.68139899,14.434746 C3.51599904,14.1790206 3.35379908,13.9126983 3.19779913,13.642777 C2.02279945,11.6081705 1.29159965,9.3086413 1.29637616,7.23384652 C1.29399965,5.1454557 2.03359944,3.67368502 3.21899912,2.9894846 Z" id="路径" fill="#6262AA"></path>
              <path d="M2.11059942,6.76198416 C2.11059942,2.60839576 5.01919863,0.907691853 8.60559765,2.964092 C12.1919967,5.02049215 15.1009959,10.0574229 15.1011959,14.2110113 C15.1011959,18.3645997 12.1923967,20.0653036 8.60599765,18.0087035 C5.01959863,15.9521034 2.11059942,10.9153726 2.11059942,6.76198416 Z" id="路径" fill="#7BB1FF" opacity="0.7"></path>
              <path d="M2.30879937,1.40454692 L3.85899895,0.515606224 C5.26639856,-0.291358385 7.20259803,-0.178191396 9.33959745,1.04725114 C13.6413963,3.51393162 17.1295953,9.55336992 17.1295953,14.5353167 C17.1295953,17.0421854 16.2463956,18.8040715 14.820796,19.621633 L13.2705964,20.5105737 C14.696196,19.6930122 15.5793957,17.9313261 15.5793957,15.4242574 C15.5791957,10.4423106 12.0911967,4.40287231 7.78939787,1.93619184 C5.65239846,0.710749301 3.71619898,0.59738237 2.30879937,1.40454692 Z" id="路径" fill="#6262AA"></path>
              <path d="M0,6.49086325 C0,1.50891648 3.48779905,-0.53028869 7.78939787,1.93619184 C12.0911967,4.40287231 15.5793957,10.4423106 15.5793957,15.4242574 C15.5793957,20.4062042 12.0915967,22.4456093 7.78979787,19.9787288 C3.48819905,17.5122483 0.000199999945,11.4726101 0,6.49086325 Z M14.2849961,14.6820739 C14.2849961,10.5284855 11.3757969,5.49175469 7.78939787,3.43535454 C4.20299885,1.37875444 1.29419965,3.07965829 1.29439965,7.23324669 C1.29439965,11.3868351 4.20319885,16.4233659 7.78979787,18.479966 C11.3761969,20.5361662 14.2851961,18.8356623 14.2849961,14.6820739 L14.2849961,14.6820739 Z" id="形状" fill="#2A2A5E"></path>
            </g>
            <g transform="translate(4.918842, 26.068224)" id="路径">
              <path d="M4.77048251,7.90722234 C4.57888256,7.99559657 4.38848261,8.08676997 4.19928267,8.18054262 C4.23388266,8.27231585 4.28608264,8.35869065 4.35308262,8.41667374 L5.36508235,9.27122447 L5.73388225,8.86814205 L4.93448247,8.19673789 C4.86028249,8.12855778 4.8012825,8.01898974 4.77048251,7.90722234 Z" fill="#373F51"></path>
              <g>
                <path d="M11.7212806,0.286045435 C11.6422806,0.709321965 11.1924808,1.81200032 10.6954809,1.61325829 C10.6954809,1.61325829 10.5520809,1.44290798 10.7970809,0.992839264 C11.0420808,0.542770548 10.7596809,0.13888836 10.384481,0.788298928 C10.146481,1.21157546 10.0960811,1.91636987 10.0904811,2.37163707 C10.0864811,2.66935023 9.98828109,2.9522677 9.81308113,3.19319742 C9.63288118,3.44012539 9.45768123,3.69065231 9.29028128,3.9467776 C8.79108141,4.69375971 8.51008149,5.54471149 8.22908157,6.39566326 C7.85448167,7.57911805 5.84588222,7.08986077 5.73048225,7.04667337 C5.73048225,7.04667337 5.51828231,6.93350638 4.98408245,6.69457607 C4.90128247,7.38197556 4.27448265,7.43615975 3.91168275,8.06817539 C3.81748277,8.25372127 3.75048279,8.36548867 3.7020828,8.45046388 C3.61448283,8.86754222 4.70548253,9.48156311 4.52868258,9.87424856 C5.70768225,9.97841818 6.49548204,9.62652083 7.99748163,9.37659373 C9.02468135,9.21104202 9.84368112,8.42827036 10.0650811,7.40077008 C10.298881,6.32848286 10.7646809,4.42523804 10.9828808,3.54129588 C11.0562808,3.24478237 11.2122808,2.97826012 11.4276807,2.7613234 C12.0126805,2.17329493 13.0786802,0.865476415 11.9834805,0.0345188047 C11.9828805,0.0347187464 11.7998806,-0.137630979 11.7212806,0.286045435 Z" fill="#ECB4BF"></path>
                <path d="M5.88388221,6.93130702 C4.86148249,6.36327271 3.43928287,5.81403293 2.92388302,5.62748734 C1.53528339,5.12623356 -0.0131161826,5.96678837 8.38137933e-05,6.95010154 C0.010483811,7.93381459 0.704883621,8.97870979 2.09228324,9.47876393 C2.54688312,9.64311599 3.92368274,9.89644209 4.95148246,10.0280037 C4.26768265,8.07337388 5.87608221,6.9365055 5.88388221,6.93130702 Z" fill="#3A3A77"></path>
              </g>
            </g>
          </g>
          <g transform="translate(14.833996, 25.123382)" id="路径">
            <polygon fill="#1E72C6" points="22.8787937 11.6681964 22.8529938 16.8538837 20.2447945 18.3664425 17.6251952 14.9694334 15.2275958 13.7937764 15.1497959 35.7817625 12.5415966 37.2943213 12.1007967 34.0278741 10.1293972 32.8858072 10.1811972 20.051551 10.1293972 19.7400418 8.54739766 9.08355034 1.80379951 5.68654124 0.0139999962 1.51235885 2.64819928 0"></polygon>
            <polygon fill="#A6C2FF" points="0.0139999962 1.51235885 0 6.69484712 7.58419793 11.0721703 7.51139795 34.4047642 12.5329966 37.3027188 12.6035966 13.9713246 20.2277945 18.3710412 20.2395945 13.1875532"></polygon>
          </g>
          <polygon id="路径" fill="#E1E9F4" points="22.9089937 80.2652967 24.9537932 78.8585071 23.4187936 77.1280118 23.3941936 77.1232132 23.4021936 77.1178148 18.132995 75.3615271 29.9837918 60.905144 27.6907924 61.481176 27.6985924 61.4757776 22.4045939 59.7148912 10.0517973 72.6755106 2.06139944 70.013887 0 71.4102797 1.57619957 73.1559705"></polygon>
        </g>
      </g>
    </g>
  </g>
</svg>
