<?xml version="1.0" encoding="UTF-8"?>
<svg xmlns="http://www.w3.org/2000/svg" xmlns:xlink="http://www.w3.org/1999/xlink" width="400px" height="250px" viewBox="0 0 400 250" version="1.1">
  <title>编组 2备份</title>
  <defs>
    <linearGradient x1="50%" y1="100%" x2="50%" y2="0%" id="linearGradient-1">
      <stop stop-color="#F5F7FA" stop-opacity="0" offset="0%"></stop>
      <stop stop-color="#D9DEE4" offset="100%"></stop>
    </linearGradient>
    <linearGradient x1="50%" y1="50%" x2="50%" y2="0%" id="linearGradient-2">
      <stop stop-color="#F5F7FA" stop-opacity="0" offset="0%"></stop>
      <stop stop-color="#D9DEE4" offset="100%"></stop>
    </linearGradient>
    <linearGradient x1="50%" y1="50%" x2="50%" y2="0%" id="linearGradient-3">
      <stop stop-color="#F5F7FA" stop-opacity="0" offset="0%"></stop>
      <stop stop-color="#D9DEE4" offset="100%"></stop>
    </linearGradient>
    <linearGradient x1="70.998387%" y1="56.749425%" x2="0%" y2="56.749425%" id="linearGradient-4">
      <stop stop-color="#D9DEE4" offset="0%"></stop>
      <stop stop-color="#F5F7FA" offset="100%"></stop>
    </linearGradient>
    <linearGradient x1="70.998387%" y1="56.749425%" x2="0%" y2="56.749425%" id="linearGradient-5">
      <stop stop-color="#D9DEE4" offset="0%"></stop>
      <stop stop-color="#F5F7FA" offset="100%"></stop>
    </linearGradient>
    <linearGradient x1="70.998387%" y1="56.749425%" x2="0%" y2="56.749425%" id="linearGradient-6">
      <stop stop-color="#D9DEE4" offset="0%"></stop>
      <stop stop-color="#F5F7FA" offset="100%"></stop>
    </linearGradient>
    <linearGradient x1="17.4817898%" y1="0%" x2="48.5107905%" y2="50%" id="linearGradient-7">
      <stop stop-color="#BEBEBE" offset="0%"></stop>
      <stop stop-color="#E3E3E3" offset="100%"></stop>
    </linearGradient>
    <linearGradient x1="50%" y1="100%" x2="50%" y2="0%" id="linearGradient-8">
      <stop stop-color="#BEBEBE" offset="0%"></stop>
      <stop stop-color="#E3E3E3" offset="100%"></stop>
    </linearGradient>
    <linearGradient x1="50%" y1="100%" x2="50%" y2="0%" id="linearGradient-9">
      <stop stop-color="#D9DEE4" offset="0%"></stop>
      <stop stop-color="#F5F7FA" stop-opacity="0" offset="100%"></stop>
    </linearGradient>
    <linearGradient x1="76.2239927%" y1="100%" x2="21.3062442%" y2="0%" id="linearGradient-10">
      <stop stop-color="#D9DEE4" offset="0%"></stop>
      <stop stop-color="#F5F7FA" offset="100%"></stop>
    </linearGradient>
    <linearGradient x1="83.1669755%" y1="58.1985816%" x2="0%" y2="2.95189788%" id="linearGradient-11">
      <stop stop-color="#D9DEE4" offset="0%"></stop>
      <stop stop-color="#F5F7FA" offset="100%"></stop>
    </linearGradient>
    <linearGradient x1="31.9982857%" y1="17.9718464%" x2="68.0017143%" y2="80.6663655%" id="linearGradient-12">
      <stop stop-color="#D9DEE4" offset="0%"></stop>
      <stop stop-color="#F5F7FA" offset="100%"></stop>
    </linearGradient>
    <linearGradient x1="83.1669755%" y1="63.1249883%" x2="0%" y2="-25.3186119%" id="linearGradient-13">
      <stop stop-color="#D9DEE4" offset="0%"></stop>
      <stop stop-color="#F5F7FA" offset="100%"></stop>
    </linearGradient>
    <linearGradient x1="71.6182422%" y1="89.630654%" x2="26.4892415%" y2="7.95143355%" id="linearGradient-14">
      <stop stop-color="#ABB4BE" offset="0%"></stop>
      <stop stop-color="#E4E8ED" offset="100%"></stop>
    </linearGradient>
    <linearGradient x1="64.3153636%" y1="89.630654%" x2="45.594426%" y2="8.90226125%" id="linearGradient-15">
      <stop stop-color="#ABB4BE" offset="0%"></stop>
      <stop stop-color="#E4E8ED" offset="100%"></stop>
    </linearGradient>
    <linearGradient x1="76.2239927%" y1="100%" x2="21.3062442%" y2="0%" id="linearGradient-16">
      <stop stop-color="#D9DEE4" offset="0%"></stop>
      <stop stop-color="#F5F7FA" offset="100%"></stop>
    </linearGradient>
    <linearGradient x1="83.1669755%" y1="58.1985816%" x2="0%" y2="2.95189788%" id="linearGradient-17">
      <stop stop-color="#D9DEE4" offset="0%"></stop>
      <stop stop-color="#F5F7FA" offset="100%"></stop>
    </linearGradient>
    <linearGradient x1="31.9982857%" y1="17.9718464%" x2="68.0017143%" y2="80.6663655%" id="linearGradient-18">
      <stop stop-color="#D9DEE4" offset="0%"></stop>
      <stop stop-color="#F5F7FA" offset="100%"></stop>
    </linearGradient>
    <linearGradient x1="83.1669755%" y1="63.1249883%" x2="0%" y2="-25.3186119%" id="linearGradient-19">
      <stop stop-color="#D9DEE4" offset="0%"></stop>
      <stop stop-color="#F5F7FA" offset="100%"></stop>
    </linearGradient>
    <linearGradient x1="71.6182422%" y1="89.630654%" x2="43.3469544%" y2="8.90226125%" id="linearGradient-20">
      <stop stop-color="#ABB4BE" offset="0%"></stop>
      <stop stop-color="#E4E8ED" offset="100%"></stop>
    </linearGradient>
    <linearGradient x1="21.3062442%" y1="17.9718464%" x2="78.6937558%" y2="80.6663655%" id="linearGradient-21">
      <stop stop-color="#D9DEE4" offset="0%"></stop>
      <stop stop-color="#F5F7FA" offset="100%"></stop>
    </linearGradient>
    <linearGradient x1="66.4522494%" y1="100%" x2="31.9982857%" y2="0%" id="linearGradient-22">
      <stop stop-color="#D9DEE4" offset="0%"></stop>
      <stop stop-color="#F5F7FA" offset="100%"></stop>
    </linearGradient>
    <linearGradient x1="84.2129629%" y1="0%" x2="0.060977795%" y2="100%" id="linearGradient-23">
      <stop stop-color="#CED3D9" offset="0%"></stop>
      <stop stop-color="#F5F7FA" offset="100%"></stop>
    </linearGradient>
    <linearGradient x1="84.2547385%" y1="-0.000373430696%" x2="-2.84217094e-12%" y2="100.000373%" id="linearGradient-24">
      <stop stop-color="#CED3D9" offset="0%"></stop>
      <stop stop-color="#F5F7FA" offset="100%"></stop>
    </linearGradient>
    <linearGradient x1="50%" y1="50%" x2="-2.85857652%" y2="92.7640296%" id="linearGradient-25">
      <stop stop-color="#DADFE5" offset="0%"></stop>
      <stop stop-color="#FFFFFF" stop-opacity="0.443137258" offset="100%"></stop>
    </linearGradient>
    <linearGradient x1="50%" y1="50%" x2="22.0068871%" y2="100%" id="linearGradient-26">
      <stop stop-color="#DADFE5" offset="0%"></stop>
      <stop stop-color="#FFFFFF" stop-opacity="0.443137258" offset="100%"></stop>
    </linearGradient>
    <linearGradient x1="50%" y1="0%" x2="50%" y2="100%" id="linearGradient-27">
      <stop stop-color="#51CFF0" offset="0%"></stop>
      <stop stop-color="#3388FF" offset="100%"></stop>
    </linearGradient>
    <linearGradient x1="50%" y1="0%" x2="50%" y2="100%" id="linearGradient-28">
      <stop stop-color="#51CFF0" offset="0%"></stop>
      <stop stop-color="#3388FF" offset="100%"></stop>
    </linearGradient>
  </defs>
  <g id="组件" stroke="none" stroke-width="1" fill="none" fill-rule="evenodd">
    <g id="5-插图" transform="translate(-74.000000, -1084.000000)">
      <g id="没内容" transform="translate(74.000000, 1084.000000)">
        <g id="编组-7" fill-rule="nonzero">
          <path d="M399.936618,249.60775 C365.090968,174.026875 288.656002,121.567995 199.968606,121.567995 C111.280707,121.567995 34.8453752,174.027472 0,249.60904" id="路径" fill="url(#linearGradient-1)"></path>
          <path d="M95.8474293,32.4879986 C102.370367,32.4879986 108.200119,35.4441269 112.059983,40.084741 C112.906735,39.9257235 113.781447,39.8423842 114.675701,39.8423842 C122.423653,39.8423842 128.70461,46.0984584 128.70461,53.815717 C128.70461,61.5329755 122.423653,67.7890496 114.675701,67.7890496 C113.590487,67.7890496 112.534052,67.6663173 111.519625,67.434028 C107.667976,71.7148526 102.073462,74.4079968 95.8474293,74.4079968 C89.6834626,74.4079968 84.138487,71.76828 80.2898107,67.5618872 C79.469252,67.7110723 78.622529,67.7890496 77.757521,67.7890496 C70.0095688,67.7890496 63.7286125,61.5329755 63.7286125,53.815717 C63.7286125,46.0984584 70.0095688,39.8423842 77.757521,39.8423842 C78.4244974,39.8423842 79.0806029,39.8887448 79.7227661,39.9784072 C83.5844195,35.398848 89.3746397,32.4879986 95.8474293,32.4879986 Z" id="形状结合" fill="url(#linearGradient-2)"></path>
          <path d="M295.390194,0 C303.701867,0 311.130248,3.7692349 316.048459,9.68624978 C317.127528,9.48305379 318.241846,9.3768417 319.381056,9.3768417 C329.253446,9.3768417 337.2566,17.3533363 337.2566,27.192841 C337.2566,37.0323456 329.253446,45.0088402 319.381056,45.0088402 C317.998637,45.0088402 316.652869,44.8524363 315.360595,44.5564147 C310.451957,50.014191 303.323419,53.4479976 295.390194,53.4479976 C287.536634,53.4479976 280.471682,50.0828102 275.567763,44.7202869 C274.520869,44.909452 273.442154,45.0088402 272.340149,45.0088402 C262.467758,45.0088402 254.464605,37.0323456 254.464605,27.192841 C254.464605,17.3533363 262.467758,9.3768417 272.340149,9.3768417 C273.190674,9.3768417 274.027323,9.43604426 274.846178,9.55054026 C279.764208,3.71160328 287.142306,0 295.390194,0 Z" id="形状结合备份" fill="url(#linearGradient-3)"></path>
          <g id="编组-6" transform="translate(92.024611, 114.231995)">
            <polygon id="Fill-3" fill="#C2C6CC" points="16.7679992 54.4959976 20.959999 54.4959976 20.959999 20.959999 16.7679992 20.959999"></polygon>
            <path d="M31.4399986,29.380888 C31.4399986,39.3468184 25.8094386,41.9199982 18.8638368,41.9199982 C11.9182351,41.9199982 6.28799973,39.3468184 6.28799973,29.380888 C6.28799973,19.4149576 11.9182351,2.84217094e-14 18.8638368,2.84217094e-14 C25.8094386,2.84217094e-14 31.4399986,19.4149576 31.4399986,29.380888" id="Fill-1" fill="url(#linearGradient-4)"></path>
            <polygon id="路径-20" fill="#C2C6CC" points="22.846628 53.4479976 0 61.0137829 18.6546282 53.4479976"></polygon>
          </g>
          <g id="编组-5" transform="translate(62.680613, 155.103994)">
            <polygon id="Fill-3" fill="#C2C6CB" points="11.4022396 37.0572787 14.2527995 37.0572787 14.2527995 14.2527995 11.4022396 14.2527995"></polygon>
            <path d="M21.3791994,19.979004 C21.3791994,26.7558368 17.5504184,28.505599 12.8274092,28.505599 C8.10439997,28.505599 4.27583986,26.7558368 4.27583986,19.979004 C4.27583986,13.2021713 8.10439997,0 12.8274092,0 C17.5504184,0 21.3791994,13.2021713 21.3791994,19.979004" id="Fill-1" fill="url(#linearGradient-5)"></path>
            <polygon id="路径-20" fill="#C2C6CB" points="15.5357072 36.3446387 0 41.4893728 12.6851473 36.3446387"></polygon>
          </g>
          <g id="编组-3" transform="translate(299.336936, 155.772367) scale(-1, 1) translate(-299.336936, -155.772367) translate(288.385257, 132.000000)">
            <polygon id="Fill-3" fill="#C2C6CB" points="12.0937454 42.3452728 14.9443053 42.3452728 14.9443053 19.5407936 12.0937454 19.5407936"></polygon>
            <path d="M21.9033594,19.979004 C21.9033594,26.7558368 18.0745786,28.505599 13.3515693,28.505599 C8.62856011,28.505599 4.8,26.7558368 4.8,19.979004 C4.8,13.2021713 8.62856011,0 13.3515693,0 C18.0745786,0 21.9033594,13.2021713 21.9033594,19.979004" id="Fill-1" fill="url(#linearGradient-6)"></path>
            <polygon id="路径-20" fill="#C2C6CB" points="15.5357072 42.4 0 47.5447339 12.6851473 42.4"></polygon>
          </g>
        </g>
        <g id="编组" transform="translate(142.288616, 24.800000)">
          <polygon id="Fill-1" fill="url(#linearGradient-7)" fill-rule="nonzero" points="53.0711982 37.6001965 53.0711982 98.5337946 102.211197 98.5337946 102.211197 41.5313965"></polygon>
          <polygon id="Fill-2" fill="url(#linearGradient-8)" fill-rule="nonzero" points="53.0711982 37.6001965 11.7935996 45.4625963 11.7935996 100.499395 53.0711982 98.5337946"></polygon>
          <polygon id="路径-32" fill="url(#linearGradient-9)" fill-rule="nonzero" points="21.78918 77.6000006 1.6 1.42108547e-14 113.6 1.42108547e-14 95.1782118 77.6000006"></polygon>
          <polygon id="Fill-3" fill="url(#linearGradient-10)" fill-rule="nonzero" points="11.7941893 100.498412 60.9322221 110.326411 60.9322221 51.3603789 11.7941893 45.4616134"></polygon>
          <g id="path-14-link" transform="translate(0.000000, 45.461810)" fill="url(#linearGradient-11)">
            <polygon id="path-14" points="0 17.6903994 49.1399984 27.518399 60.9335981 5.89876544 11.7935996 0"></polygon>
          </g>
          <polygon id="Fill-5" fill="url(#linearGradient-12)" fill-rule="nonzero" points="60.9328118 51.3597893 60.9328118 110.327787 102.212376 98.5322221 102.212376 41.5317896"></polygon>
          <g id="path-18-link" transform="translate(60.932812, 41.531790)" fill="url(#linearGradient-13)">
            <polygon id="path-18" points="0 9.82799968 13.7591995 31.4495989 55.0387637 19.6540338 41.2795642 0"></polygon>
          </g>
        </g>
        <g id="编组" transform="translate(139.888616, 110.400059)">
          <polygon id="Fill-1" fill="url(#linearGradient-14)" fill-rule="nonzero" points="15.9213601 0 15.9213601 18.2800801 30.6633602 18.2800801 30.6633602 1.17936001"></polygon>
          <polygon id="Fill-2" fill="url(#linearGradient-15)" fill-rule="nonzero" points="15.9213601 0 3.53808003 2.35872002 3.53808003 18.8697601 15.9213601 18.2800801"></polygon>
          <polygon id="Fill-3" fill="url(#linearGradient-16)" fill-rule="nonzero" points="3.53825693 18.8694654 18.2796674 21.8178654 18.2796674 4.12805487 3.53825693 2.35842518"></polygon>
          <g id="path-24-link" transform="translate(0.000000, 2.358484)" fill="url(#linearGradient-17)">
            <polygon id="path-24" points="0 5.30712003 14.7420001 8.25552005 18.2800802 1.76962968 3.53808003 0"></polygon>
          </g>
          <polygon id="Fill-5" fill="url(#linearGradient-18)" fill-rule="nonzero" points="18.2798443 4.12787796 18.2798443 21.8182782 30.6637141 18.2796084 30.6637141 1.17947794"></polygon>
          <g id="path-28-link" transform="translate(18.279844, 1.179478)" fill="url(#linearGradient-19)">
            <polygon id="path-28" points="0 2.94840002 4.12776 9.43488006 16.5116298 5.89621037 12.3838698 0"></polygon>
          </g>
        </g>
        <g id="编组" transform="translate(235.292879, 122.909198) scale(-1, 1) translate(-235.292879, -122.909198) translate(217.897142, 112.000059)">
          <polygon id="Fill-1" fill="url(#linearGradient-20)" fill-rule="nonzero" points="15.9213601 0 15.9213601 18.2800801 30.6633602 18.2800801 30.6633602 1.17936001"></polygon>
          <polygon id="Fill-2" points="15.9213601 0 3.53808003 2.35872002 3.53808003 18.8697601 15.9213601 18.2800801"></polygon>
          <polygon id="Fill-3" fill="url(#linearGradient-21)" fill-rule="nonzero" points="3.53825693 18.8694654 18.2796674 21.8178654 18.2796674 4.12805487 3.53825693 2.35842518"></polygon>
          <g id="path-32-link" transform="translate(0.000000, 2.358484)" fill="url(#linearGradient-17)">
            <polygon id="path-32" points="0 5.30712003 14.7420001 8.25552005 18.2800802 1.76962968 3.53808003 0"></polygon>
          </g>
          <polygon id="Fill-5" fill="url(#linearGradient-22)" fill-rule="nonzero" points="18.2798443 4.12787796 18.2798443 21.8182782 30.6637141 18.2796084 30.6637141 1.17947794"></polygon>
          <g id="path-35-link" transform="translate(18.279844, 1.179478)" fill="url(#linearGradient-19)">
            <polygon id="path-35" points="0 2.94840002 4.12776 9.43488006 16.5116298 5.89621037 12.3838698 0"></polygon>
          </g>
        </g>
        <ellipse id="椭圆形" fill="#B5BDC7" fill-rule="nonzero" opacity="0.300000012" style="mix-blend-mode: multiply;" cx="199.888616" cy="147.2" rx="56.8" ry="3.2"></ellipse>
        <path d="M216.693936,40.9616905 C216.610121,40.852087 216.481176,40.7940615 216.345784,40.8005087 C216.21039,40.8069561 216.087892,40.8843233 216.02342,41.000374 C214.850017,43.0570519 213.328462,43.7662511 211.987432,44.3916359 C211.110603,44.7978138 210.285353,45.1846497 209.666416,45.8874017 C208.976558,46.6675209 208.654195,47.7248726 208.654195,49.2077438 C208.654195,49.7751033 208.699326,50.4069353 208.796035,51.1096873 C207.029483,51.5352068 205.488587,51.2902108 205.488587,51.2902108 L205.488587,52.9020273 C207.461451,52.9020273 209.105504,52.4378241 210.298248,51.9349374 C211.078366,51.6383631 211.774672,51.2386326 212.380715,50.7873239 C212.451635,50.7357458 212.490318,50.7035095 212.490318,50.7035095 C215.423824,48.4405191 216.371572,44.8364974 216.371572,44.8364974 C216.371572,48.6855153 213.567011,52.0316463 209.982331,53.2243906 C211.084814,53.572543 212.109929,53.7337246 213.031888,53.6885937 C214.069899,53.6370156 214.991857,53.3404414 215.771977,52.8053183 C217.428924,51.6577049 218.376769,49.4398454 218.376769,46.7126518 C218.38312,44.5076868 217.751288,42.3542999 216.693936,40.9616905 Z" id="路径" fill="url(#linearGradient-23)" fill-rule="nonzero" transform="translate(211.932678, 47.248024) scale(-1, 1) rotate(78.000000) translate(-211.932678, -47.248024) "></path>
        <path d="M186.635147,52.9203644 C186.572715,52.8387737 186.476667,52.7955786 186.375817,52.800378 C186.274967,52.8051775 186.183723,52.8627709 186.135699,52.949161 C185.261665,54.4801868 184.128302,55.0081268 183.129406,55.4736738 C182.476283,55.7760393 181.861577,56.0640066 181.400548,56.5871469 C180.886694,57.1678809 180.646574,57.9549913 180.646574,59.0588657 C180.646574,59.4812177 180.680191,59.9515641 180.752227,60.4747045 C179.436374,60.7914684 178.288604,60.6090892 178.288604,60.6090892 L178.288604,61.8089527 C179.758134,61.8089527 180.982742,61.4633921 181.871182,61.0890346 C182.45227,60.8682597 182.970927,60.5706937 183.422351,60.2347319 C183.475179,60.1963362 183.503993,60.1723389 183.503993,60.1723389 C185.689076,58.4877306 186.395027,55.8048361 186.395027,55.8048361 C186.395027,58.67011 184.30599,61.1610265 181.635865,62.0489253 C182.457073,62.3080959 183.220652,62.4280821 183.907393,62.394486 C184.680575,62.3560903 185.367316,62.1353156 185.948406,61.7369609 C187.182617,60.8826581 187.88864,59.231646 187.88864,57.201477 C187.893371,55.5600639 187.422737,53.9570463 186.635147,52.9203644 Z" id="路径备份" fill="url(#linearGradient-24)" fill-rule="nonzero" transform="translate(183.088622, 57.600017) rotate(70.000000) translate(-183.088622, -57.600017) "></path>
        <path d="M221.488616,38.7280072 C224.91948,37.6700512 237.516258,33.1881168 233.894235,26.7239989 C230.05997,19.8810973 228.160365,25.5245875 228.629122,28.1379062 C230.21061,36.9546859 243.021859,20.7214894 244.334304,17.6" id="路径-33" stroke="url(#linearGradient-25)" stroke-linecap="round" stroke-dasharray="6"></path>
        <path d="M174.294357,50.0976133 C170.992787,47.0501296 169.169258,45.0079154 169.653902,39.8980038 C169.863363,37.6895338 171.735253,39.2682811 172.012498,39.8980038 C176.936395,51.0819634 164.686203,42.3273462 162.288616,33.6" id="路径-34" stroke="url(#linearGradient-26)" stroke-linecap="round" stroke-dasharray="6"></path>
        <g id="编组-4" transform="translate(248.961701, 59.564035) scale(-1, 1) rotate(-20.000000) translate(-248.961701, -59.564035) translate(235.497340, 51.734010)" fill="#EBEFFB" fill-rule="nonzero">
          <path d="M1.67364787,6.16075953 C2.3817613,5.70988261 3.30973691,5.88544357 3.80768061,6.54319921 L3.88263488,6.6510415 L7.62946141,12.5355257 C8.10406871,13.2809083 7.88456199,14.2699054 7.13917944,14.7445127 C6.43106602,15.1953896 5.5030904,15.0198287 5.00514671,14.362073 L4.93019243,14.2542308 L1.18336591,8.36974654 C0.708758616,7.62436398 0.928265332,6.63536681 1.67364787,6.16075953 Z" id="路径-29" style="mix-blend-mode: multiply;" transform="translate(4.406414, 10.452636) rotate(-13.000000) translate(-4.406414, -10.452636) "></path>
          <path d="M19.2736474,1.36075971 C19.9817608,0.909882782 20.9097363,1.08544374 21.40768,1.74319939 L21.4826344,1.85104168 L25.2294608,7.73552589 C25.7040682,8.48090845 25.4845614,9.46990561 24.7391789,9.94451289 C24.0310654,10.3953898 23.1030899,10.2198289 22.6051461,9.56207321 L22.5301918,9.45423093 L18.7833653,3.56974672 C18.3087581,2.82436416 18.5282648,1.83536699 19.2736474,1.36075971 Z" id="路径-29" style="mix-blend-mode: multiply;" transform="translate(22.006413, 5.652636) scale(-1, 1) rotate(22.000000) translate(-22.006413, -5.652636) "></path>
          <path d="M12.9227485,0.220413502 C13.766238,0.220413502 14.4572806,0.873115734 14.51836,1.70100363 L14.5227485,1.8204135 L14.5227485,9.50676059 C14.5227485,10.3904162 13.8064041,11.1067606 12.9227485,11.1067606 C12.0792591,11.1067606 11.3882165,10.4540584 11.3271371,9.62617046 L11.3227485,9.50676059 L11.3227485,1.8204135 C11.3227485,0.936757902 12.0390929,0.220413502 12.9227485,0.220413502 Z" id="路径-30" style="mix-blend-mode: multiply;" transform="translate(12.922749, 5.663587) rotate(-13.000000) translate(-12.922749, -5.663587) "></path>
        </g>
        <g id="编组" transform="translate(186.288616, 117.600130)" fill="url(#linearGradient-27)" fill-rule="nonzero">
          <path d="M10.163376,9.76043997 L14.075376,10.544144 L14.075376,14.641312 L10.163376,13.860216 L10.163376,9.76043997 Z M5.12276398,8.78517837 L9.03476397,9.56888237 L9.03476397,13.6660504 L5.12276398,12.8849544 L5.12276398,8.78517837 Z M0,7.70090238 L3.91199998,8.48330237 L3.91199998,12.5804704 L0,11.7993744 L0,7.70090238 Z M10.163376,4.88074158 L14.075376,5.66314158 L14.075376,9.76030957 L10.163376,8.97921357 L10.163376,4.88074158 Z M5.12237278,3.90365438 L9.03437277,4.68735838 L9.03437277,8.78583037 L5.12237278,8.00343038 L5.12237278,3.90365438 Z M10.163376,0 L14.075376,0.781095998 L14.075376,4.88087198 L10.163376,4.09847198 L10.163376,0 Z" id="形状结合"></path>
        </g>
        <g id="编组" transform="translate(151.088616, 124.800052)" fill="url(#linearGradient-28)" fill-rule="nonzero">
          <path d="M4.06535045,3.90417605 L5.63015046,4.21765765 L5.63015046,5.85652486 L4.06535045,5.54408646 L4.06535045,3.90417605 Z M2.04910563,3.51407141 L3.61390565,3.82755301 L3.61390565,5.46642022 L2.04910563,5.15398182 L2.04910563,3.51407141 Z M-1.04083409e-17,3.08036099 L1.56480002,3.39332101 L1.56480002,5.03218822 L-1.04083409e-17,4.71974982 L-1.04083409e-17,3.08036099 Z M4.06535045,1.95229666 L5.63015046,2.26525667 L5.63015046,3.90412389 L4.06535045,3.59168549 L4.06535045,1.95229666 Z M2.04894915,1.56146178 L3.61374917,1.87494338 L3.61374917,3.51433221 L2.04894915,3.20137219 L2.04894915,1.56146178 Z M4.06535045,0 L5.63015046,0.312438403 L5.63015046,1.95234882 L4.06535045,1.63938882 L4.06535045,0 Z" id="形状结合"></path>
        </g>
        <g id="编组" transform="translate(237.873541, 130.128315) scale(-1, 1) translate(-237.873541, -130.128315) translate(235.058466, 127.200052)" fill="url(#linearGradient-28)" fill-rule="nonzero">
          <path d="M4.06535045,3.90417605 L5.63015046,4.21765765 L5.63015046,5.85652486 L4.06535045,5.54408646 L4.06535045,3.90417605 Z M2.04910563,3.51407141 L3.61390565,3.82755301 L3.61390565,5.46642022 L2.04910563,5.15398182 L2.04910563,3.51407141 Z M-1.04083409e-17,3.08036099 L1.56480002,3.39332101 L1.56480002,5.03218822 L-1.04083409e-17,4.71974982 L-1.04083409e-17,3.08036099 Z M4.06535045,1.95229666 L5.63015046,2.26525667 L5.63015046,3.90412389 L4.06535045,3.59168549 L4.06535045,1.95229666 Z M2.04894915,1.56146178 L3.61374917,1.87494338 L3.61374917,3.51433221 L2.04894915,3.20137219 L2.04894915,1.56146178 Z M4.06535045,0 L5.63015046,0.312438403 L5.63015046,1.95234882 L4.06535045,1.63938882 L4.06535045,0 Z" id="形状结合"></path>
        </g>
      </g>
    </g>
  </g>
</svg>
